<svg width="500" height="182" viewBox="0 0 500 182" fill="none" xmlns="http://www.w3.org/2000/svg">
<g clip-path="url(#clip0)">
<path d="M0 67.0548L22.3143 104.292L31.2225 95.8929L6.93586 60.0901L0 67.0548Z" fill="url(#paint0_linear)"/>
<path d="M331.315 37.7892L330.452 42.6976L341.125 39.2933L339.794 33.2806L331.315 37.7892Z" fill="#0071B9"/>
<path d="M269.129 4.26648L234.788 43.1967L244.781 40.3554L277.477 0L269.129 4.26648Z" fill="url(#paint1_linear)"/>
<path d="M452.846 57.4946L461.276 53.0539L458.867 73.9204L452.846 57.4946Z" fill="#1D2C5E"/>
<path d="M400.454 70.8756L407.947 72.3926L417.51 67.8033L409.21 64.7419L400.454 70.8756Z" fill="#1D2C5E"/>
<path d="M142.128 48.7197L143.326 72.9006L153.784 68.724L150.654 44.1982L142.128 48.7197Z" fill="url(#paint2_linear)"/>
<path d="M408.563 41.5037L400.146 45.994L400.454 70.8756L408.926 66.5835L411.585 54.5398L408.563 41.5037Z" fill="url(#paint3_linear)"/>
<path d="M407.407 72.4622L398.138 153.848L412.955 150.959L415.857 68.0729L407.407 72.4622Z" fill="#312370"/>
<path d="M425.55 157.75L425.813 168.786L454.254 177.747L462.719 173.311L434.812 151.939L406.544 149.484L398.138 153.848L425.55 157.75Z" fill="#21386E"/>
<path d="M320.042 138.338L327.032 134.616L331.487 142.753L338.074 139.174L339.386 149.901L380.734 157.15L388.996 152.658L331.981 118.315L291.534 125.168L283.645 132.58L320.042 138.338Z" fill="#21386E"/>
<path d="M306.876 38.2038L298.598 42.7069L283.645 132.58L292.021 128.279L306.375 77.8163L306.876 38.2038Z" fill="url(#paint4_linear)"/>
<path d="M240.824 50.2494L234.229 53.7216L234.784 55.8952L250.478 46.0398L243.62 38.7651L234.788 43.1967L240.824 50.2494Z" fill="#1D2C5E"/>
<path d="M258.853 156.411L191.425 123.392L199.889 117.066L267.244 151.931L258.853 156.411Z" fill="#21386E"/>
<path d="M197.761 33.5247L187.543 52.6799L198.34 49.4479L206.132 29.0363L197.761 33.5247Z" fill="#1D2C5E"/>
<path d="M105.083 112.658L96.4619 118.508C96.4619 118.508 98.2914 128.016 100.65 134.631C103.021 141.269 108.665 146.601 108.665 146.601C112.291 150.104 116.735 152.654 121.693 154.085C131.228 156.798 141.99 155.029 151.229 149.206C153.645 147.694 156.923 145.275 158.938 143.365C149.858 148.813 105.083 112.658 105.083 112.658Z" fill="url(#paint5_linear)"/>
<path d="M151.216 70.9288L159.083 156.728L191.228 152.027L199.828 147.571L159.937 65.7856L151.73 68.5186L143.326 72.9007L151.216 70.9288Z" fill="#1D2C5E"/>
<path d="M30.7084 100.73L66.6234 181.25L100.744 170.369L109.075 164.833L38.2547 91.5825L29.3928 96.8321L22.3141 104.292L30.7084 100.73Z" fill="url(#paint6_linear)"/>
<path d="M386.651 138.719L387.134 142.672C390.073 142.346 393.16 141.969 395.803 141.04C398.883 139.998 405.574 137.052 408.118 134.882C407.164 135.225 391.487 139.242 386.651 138.719Z" fill="#1D2C5E"/>
<path d="M265.934 118.159L267.214 124.524C274.12 123.508 280.049 120.982 285.877 117.519C289.534 115.365 293.549 112.117 294.817 111.251C293.922 111.816 265.934 118.159 265.934 118.159Z" fill="#1D2C5E"/>
<path d="M75.9608 173.616L73.2944 167.759L39.2423 92.6298L38.5427 91.0891L36.9953 91.7952L35.9617 92.2648L29.8998 95.207C29.0055 93.7249 27.5211 91.2413 26.4894 89.5189L12.7828 66.6201L9.198 60.6423L15.1282 56.9279C20.7374 53.3915 27.072 50.1246 33.9634 47.2155C47.6848 41.4376 61.6901 38.3818 74.4615 38.3818C78.6624 38.3818 82.7278 38.7174 86.5464 39.3741C92.9126 40.0913 98.8001 42.1567 103.663 45.3593C110.911 49.3653 116.617 55.5797 119.84 62.9314C122.486 68.9734 123.001 76.05 121.32 83.3907L120.333 87.703L123.957 85.1057C126.399 83.354 129.052 81.8573 131.843 80.6558C136.667 78.64 141.659 77.611 146.659 77.611C151.392 77.611 155.868 78.5372 159.963 80.3587L162.603 81.5289L162.338 78.6803L161.19 66.3706L161.004 64.419L159.082 64.9124L153.313 66.3908L152.302 45.4308L194.559 32.0848L194.217 48.3748L197.4 49.1818L206.629 31.6977L234.27 55.9319L235.423 56.9462L236.547 55.9007C240.334 52.3826 244.822 49.5597 249.886 47.5108L252.001 46.6561L250.552 44.908L245.568 38.9027L277.303 2.74219L293.923 27.257L268.482 40.7755L262.832 43.78L269.246 43.9139C281.307 44.1652 291.987 49.2094 299.315 58.1147L301.965 61.3448L303.672 63.4193L300.836 66.3945L298.946 68.3792L292.589 75.0815L291.407 76.327L292.685 77.4679L298.643 82.7707L300.948 84.8196L301.441 81.7967L303.727 67.8069L304.312 64.2154L304.33 64.2356L304.931 60.5671L308.344 39.9134H338.807H340.236L340.477 38.5212L341.073 34.9847H368.506L375.153 76.4774L375.585 79.1646L377.812 77.5669C380.504 75.6336 383.479 74.0433 386.655 72.8419C390.884 71.2644 395.237 70.4592 399.582 70.4592C404.756 70.4592 409.778 71.6405 414.122 73.8727C414.237 73.9553 414.4 74.0617 414.623 74.1497L416.685 74.9678L416.928 72.7814L417.425 68.2599L417.588 66.7778L416.113 66.4532L410.55 65.2242L410.279 43.5947L452.691 52.8228L455.876 68.3865L459.17 68.4507L462.456 55.057L497.822 63.5587L461.68 171.235L435.819 163.206L435.635 153.289L435.609 151.867L434.182 151.669L408.376 148.068L409.836 135.102L410.183 132.017L407.39 133.431C406.067 134.097 404.787 134.656 403.577 135.096C399.358 136.674 395.036 137.472 390.734 137.472C389.488 137.472 388.238 137.404 387.021 137.268L384.816 137.024L385.161 139.189L386.978 150.592L349.328 144.027L347.356 127.105L346.721 121.681L344.185 126.529L339.85 134.792L331.87 120.228L329.47 115.853L328.713 120.769L326.975 132.042L293.977 126.908L296.535 111.436L297.12 107.889L294.001 109.732C288.599 112.933 282.396 115.342 275.043 117.097C272.473 117.717 269.788 118.146 267.055 118.37L265.508 118.498V120.034V149.231L200.522 117.482L198.081 116.292L198.082 118.983L198.127 146.137L169.072 150.368L167.851 137.329L167.52 133.84L164.988 136.294C161.149 140.009 156.824 142.888 152.135 144.855C147.338 146.871 142.39 147.89 137.43 147.89C132.477 147.89 127.824 146.867 123.597 144.866C115.767 141.142 110.119 134.387 107.695 125.863C106.541 121.859 106.228 117.631 106.764 113.291L107.337 108.669L103.927 111.878C101.522 114.135 98.9319 116.29 96.2228 118.269L95.3044 118.939L95.5938 120.03L105.382 157.17L107.111 163.76L100.557 165.82L82.1285 171.653L75.9608 173.616ZM84.2326 73.9131C83.2826 73.9131 82.301 73.9993 81.312 74.1754L80.0577 74.4138L78.2059 74.766L78.7644 76.5489L79.1281 77.7082L84.3977 94.7539L84.9247 96.3919L85.7077 98.8498L87.656 97.1366L88.9493 95.9975C94.0575 91.4596 95.848 86.8519 94.77 81.041C94.0909 77.5541 91.3596 75.8171 89.7898 75.0907C88.1496 74.3093 86.2718 73.9131 84.2326 73.9131ZM225.501 74.4725L222.208 77.6421L213.533 85.9752L211.644 87.7892L214.103 88.7284L223.406 92.2776L226.264 93.3654L225.674 90.3975C224.906 86.564 224.705 82.7267 225.065 78.994L225.501 74.4725ZM263.383 64.9949C259.785 64.9949 256.304 66.5247 253.831 69.1881C250.079 73.2381 249.35 79.2123 252.018 84.051L252.725 85.3625L253.863 87.4591L255.464 85.6872L256.494 84.5591L269.219 70.1969L270.219 69.0597L271.824 67.2364L269.534 66.3982L268.107 65.8772C266.61 65.2976 265.007 64.9949 263.383 64.9949Z" fill="#FFCB05"/>
<path d="M282.849 86.2686C282.726 86.375 282.613 86.5107 282.517 86.6501C282.645 86.5346 282.769 86.4337 282.901 86.3273L282.849 86.2686Z" fill="#7D7F68"/>
<path d="M293.821 76.2224L300.176 69.52L298.001 71.8018L298.064 71.5138L296.142 73.5187L289.792 80.2009L295.741 85.4909L296.819 78.9022L299.78 81.5234L293.821 76.2224Z" fill="#7D7F68"/>
<path d="M293.82 76.2224L299.78 81.5234L302.063 67.5354L300.176 69.5201L293.82 76.2224Z" fill="#7D7F68"/>
<path d="M214.709 87.1674L214.806 87.2079L214.709 87.1674Z" fill="#7D7F68"/>
<path d="M249.893 92.9856C250.402 93.4937 249.932 93.1287 250.502 93.5139L254.389 90.8047C253.812 90.4011 253.241 89.9683 252.715 89.484C247.075 84.4031 248.541 72.9757 252.2 66.7209C242.568 74.4028 243.069 86.2282 249.893 92.9856Z" fill="#C7A008"/>
<path d="M296.819 99.3836C290.399 104.633 283.081 108.056 273.412 110.365C271.298 110.844 269.228 111.193 267.201 111.369C251.855 112.86 238.979 105.893 234.094 94.5944C233.485 93.226 233.016 91.8412 232.661 90.3628C230.401 80.8467 232.331 72.3431 237.087 65.6774C237.558 65.0317 238.053 64.4136 238.573 63.7844C238.33 63.9899 238.081 64.166 237.879 64.3586C236.051 65.9672 234.433 67.7299 233.058 69.6559C228.297 76.3216 226.367 84.8307 228.648 94.3321C228.997 95.8105 229.459 97.2155 230.054 98.5527C234.942 109.877 247.821 116.84 263.155 115.36C265.197 115.166 267.261 114.832 269.376 114.327C279.056 112.018 286.369 108.61 292.789 103.36C294.357 102.085 295.869 100.695 297.337 99.1745L297.201 99.0461C297.055 99.1709 296.945 99.2791 296.819 99.3836Z" fill="#C7A008"/>
<path d="M188.664 70.6171L205.81 46.7974L205.114 46.1628L188.571 69.135L188.664 70.6171Z" fill="#C7A008"/>
<path d="M302.063 67.5354L299.78 81.5234L296.819 78.9023L295.741 85.4909L289.792 80.2009L296.142 73.5187L298.064 71.5139L298.001 71.8019L300.176 69.5201L302.063 67.5354Z" fill="#C7A008"/>
<path d="M280.875 28.3006L286.879 25.7547L275.904 11.8309L272.308 16.7962L280.875 28.3006Z" fill="#C7A008"/>
<path d="M114.642 62.7956C86.9283 29.4214 36.9912 47.3604 19.043 62.9717L19.7443 64.1695C23.871 61.829 28.2221 59.7122 32.7997 57.8138C50.6273 50.286 67.6237 48.0794 81.2505 50.4364C86.0674 50.983 91.17 52.3954 95.6102 55.3339C101.757 58.7364 106.417 63.577 109.141 69.7804C113.974 80.7676 109.716 95.3775 98.3322 107.608C112.61 94.6566 122.38 82.2644 114.642 62.7956Z" fill="#C7A008"/>
<path d="M171.183 101.678C171.053 101.073 170.923 100.458 170.725 99.866C169.164 94.3173 165.811 89.8876 161.416 86.94C154.302 82.1636 144.371 81.1823 134.474 85.313C129.267 87.5379 124.74 90.9625 121.161 95.0529C123.912 92.7124 127.057 90.7626 130.455 89.3098C140.33 85.1662 150.26 86.1457 157.398 90.9166C161.794 93.868 165.119 98.2958 166.713 103.837C166.889 104.431 167.027 105.055 167.164 105.681C167.587 107.79 167.784 109.923 167.702 112.108C167.496 118.495 165.101 124.926 161.117 130.417C160.475 131.287 159.799 132.097 159.1 132.901C161.367 130.966 163.392 128.825 165.121 126.428C169.122 120.971 171.511 114.527 171.723 108.102C171.812 105.958 171.632 103.789 171.183 101.678Z" fill="#C7A008"/>
<path d="M143.894 93.5323C143.855 93.5928 147.915 89.5556 147.869 89.5556C142.79 89.3649 140.643 94.0991 140.467 94.4714C141.51 93.9725 142.66 93.6478 143.894 93.5323Z" fill="#C7A008"/>
<path d="M153.459 99.3193C153.665 99.9998 153.773 100.677 153.773 101.418C153.773 102.463 153.537 103.467 153.109 104.391C153.921 103.971 159.794 101.155 157.517 95.1904C157.64 95.3739 153.313 99.301 153.459 99.3193Z" fill="#C7A008"/>
<path d="M130.358 102.639C130.358 100.185 134.609 94.2312 135.934 92.2447C129.221 96.4635 126.33 102.157 126.33 106.642C126.33 114.325 133.16 120.505 141.326 120.505C145.189 120.505 152.264 118.486 156.892 111.082C154.467 112.66 148.303 116.435 145.069 116.435C136.905 116.433 130.358 110.365 130.358 102.639Z" fill="#C7A008"/>
<path d="M187.827 109.672L187.933 140.772L192.926 141.054L191.939 105.602L187.827 109.672Z" fill="#C7A008"/>
<path d="M159.167 50.4622L159.269 53.2246L182.932 46.26L184.685 76.0483L188.634 70.5785L187.792 40.6857L159.167 50.4622Z" fill="#C7A008"/>
<path d="M230.698 61.1284L208.471 40.9626L205.81 46.7973L225.373 64.9656L230.698 61.1284Z" fill="#C7A008"/>
<path d="M227.319 98.7085L201.224 90.1793L197.422 94.1486L223.419 104.433C226.367 109.925 230.836 114.63 236.461 118.069C241.907 121.362 248.131 123.333 254.721 123.959V136.652L258.752 138.64L260.026 119.571L227.319 98.7085Z" fill="#C7A008"/>
<path d="M269.224 95.1208C275.633 93.5929 279.329 90.2876 282.511 86.6503C280.123 88.5872 268.151 91.1662 266.14 91.8394L262.197 95.9903C263.999 96.148 267.012 95.6675 269.224 95.1208Z" fill="#C7A008"/>
<path d="M257.568 51.2545C245.75 52.7843 239.592 62.5921 238.573 63.7862C242.937 60.1415 248.407 57.436 254.567 55.9942C269.191 52.4982 282.085 56.9059 290.054 66.6458L294.986 62.5187C287.093 52.9475 272.187 47.7694 257.568 51.2545Z" fill="#C7A008"/>
<path d="M297.203 99.046C298.628 97.8611 301.161 96.6633 302.508 95.2675L286.684 81.2905C285.473 82.723 284.374 85.0837 282.895 86.3255L297.203 99.046Z" fill="#C7A008"/>
<path d="M378.407 136.502C361.806 123.012 362.799 94.0881 370.948 84.9113L363.634 39.5777L347.636 41.6192L346.923 45.6124H359.028L365.439 86.7437C357.282 95.9498 353.341 108.283 356.067 119.575C358.177 128.301 363.598 135.362 371.403 139.447C372.188 139.873 372.998 140.243 373.828 140.594L373.932 141.197L378.691 141.94C378.691 141.938 379.187 136.894 378.407 136.502Z" fill="#C7A008"/>
<path d="M314.6 46.2489L313.912 50.2439H332.159L337.534 79.3737L341.583 75.331L337.326 44.5797L314.6 46.2489Z" fill="#C7A008"/>
<path d="M345.838 102.799L339.946 117.843L341.405 121.758L349.831 98.8461L345.838 102.799Z" fill="#C7A008"/>
<path d="M328.342 93.3232L324.286 97.3273L319.938 124.5L324.102 126.072L328.342 93.3232Z" fill="#C7A008"/>
<path d="M410.294 84.6435C412.682 86.3292 414.719 88.4624 416.252 90.9992C417.462 92.9454 418.376 95.1245 418.961 97.5163C420.948 105.684 418.571 114.518 413.318 121.606C412.79 122.325 412.207 123.02 411.65 123.702C413.784 121.888 439.702 102.99 414.38 78.1686C386.529 69.0927 375.986 87.0556 375 88.1946C377.943 85.7221 381.339 83.6769 385.016 82.2865C394.442 78.7574 403.716 79.9809 410.294 84.6435Z" fill="#C7A008"/>
<path d="M396.254 86.4338C396.331 86.6081 400.252 82.3948 400.332 82.3948C395.376 82.5965 392.995 84.9609 393.24 86.0523C392.943 86.476 392.702 86.896 392.513 87.3601C393.57 86.8392 395.526 86.4393 396.254 86.4338Z" fill="#C7A008"/>
<path d="M405.572 92.5913C405.75 93.248 405.835 93.9358 405.82 94.675C405.776 95.6215 405.527 96.4891 405.164 97.298C405.917 96.9623 411.923 95.1189 409.63 88.5853C409.689 88.7706 405.507 92.595 405.572 92.5913Z" fill="#C7A008"/>
<path d="M392.414 113.337C398.02 113.573 404.219 110.169 408.665 104.153C397.257 106.466 385.265 87.6866 386.467 85.8486C382.157 88.9375 378.342 94.8952 378.168 99.0589C377.871 106.779 384.23 113.014 392.414 113.337Z" fill="#C7A008"/>
<path d="M454.928 162.265L457.602 164.034L490.236 67.2126L465.813 61.6328L465.506 67.3043L485.208 71.6258L454.928 162.265Z" fill="#C7A008"/>
<path d="M416.172 51.2546L416.385 56.662L442.353 61.8181L452.351 108.689L456.397 104.657L446.873 57.304L416.172 51.2546Z" fill="#C7A008"/>
<path d="M436.156 104.666L429.007 144.638L433.124 145.957L440.221 100.73L436.156 104.666Z" fill="#C7A008"/>
<path d="M99.1671 159.305L87.021 115.773L82.5753 118.847L93.8326 160.552L99.1671 159.305Z" fill="#C7A008"/>
<path d="M96.0147 93.8441C93.2129 96.7826 87.0025 102.493 83.4641 104.745L81.3154 97.9253L76.6098 82.9725L73.6188 72.8492L70.7001 76.5526L73.68 86.6905L78.3856 101.632L80.5249 108.472C85.3697 105.387 92.4169 99.5963 96.0147 93.8441Z" fill="#C7A008"/>
<path d="M268.116 68.1039C264.283 66.6457 258.853 67.0841 255.922 70.2555C255.241 70.991 253.916 72.8675 253.497 73.7057C256.334 71.4753 261.386 70.9928 264.698 72.1741L268.116 68.1039Z" fill="#7D7F68"/>
<path d="M92.5097 81.6114C92.0792 79.3736 89.8619 77.5962 88.7746 77.1028C86.83 76.1747 83.466 76.0298 81.0093 76.4718C81.4509 77.9796 81.9574 79.7478 82.1727 80.4724C83.1691 80.6099 84.8056 80.9034 85.6647 81.2904C86.7428 81.804 88.628 83.0146 89.0659 85.2671C89.6522 88.2734 89.4982 91.0835 88.2309 93.3653C91.7062 89.994 93.3929 86.3273 92.5097 81.6114Z" fill="#7D7F68"/>
<path d="M98.5956 81.5492C96.9275 72.7008 85.223 67.8235 73.6187 74.0801L76.6098 84.207L81.3153 99.1727L83.4621 105.989C92.1682 100.455 100.919 93.8057 98.5956 81.5492ZM87.0692 95.1557C85.8019 91.0671 83.0224 82.2389 83.0224 82.2389C83.0354 82.2792 82.475 80.3496 81.8108 78.1411C84.2711 77.7064 86.6351 77.8825 88.5796 78.807C89.6669 79.3187 91.5781 80.5128 91.9956 82.7763C92.9567 87.8645 91.2219 91.4964 87.0692 95.1557Z" fill="#3C5AA6"/>
<path d="M274.191 67.5097C267.704 61.6273 257.622 62.084 251.704 68.491C245.752 74.8871 246.22 84.8599 252.716 90.7185C253.244 91.2229 253.816 91.6357 254.391 92.041L275.316 68.6158C274.946 68.2342 274.575 67.8545 274.191 67.5097ZM254.434 83.9868C252.387 80.2724 252.801 75.5566 255.861 72.2513C258.804 69.0817 263.312 68.1792 267.157 69.6448L254.434 83.9868Z" fill="#3567B0"/>
<path d="M302.15 64.938L290.562 75.9747L301.571 85.7476L302.15 64.938Z" fill="#1E2D5F"/>
<path d="M409.598 88.5852C409.774 89.2804 409.865 89.9683 409.843 90.7001C409.65 95.0767 405.488 98.4554 400.526 98.2261C395.569 98.0573 391.674 94.3375 391.869 89.9719C392.036 85.8797 395.724 82.6404 400.28 82.4332C399.415 82.2406 398.511 82.1397 397.569 82.1067C389.269 81.7527 382.485 87.5636 382.2 94.7979C381.881 102.535 388.154 108.843 396.322 109.193C404.633 109.521 411.413 103.69 411.743 95.9901C411.84 93.3213 411.042 90.7625 409.598 88.5852Z" fill="#3466AF"/>
<path d="M157.816 97.4209C157.816 101.816 153.773 105.338 148.82 105.338C143.855 105.338 139.827 101.814 139.827 97.4209C139.827 93.3251 143.371 89.9482 147.913 89.5557C147.043 89.3998 146.137 89.3099 145.202 89.3099C136.904 89.3099 130.358 95.3941 130.358 102.639C130.358 110.371 136.906 116.435 145.069 116.435C153.374 116.435 159.914 110.367 159.914 102.639C159.914 99.9632 159.02 97.4411 157.482 95.3648C157.69 95.9902 157.816 96.6836 157.816 97.4209Z" fill="url(#paint7_linear)"/>
<path d="M461.22 53.032L457.535 68.0454L454.132 51.4215L408.563 41.5056L408.882 66.5541L415.749 68.0766L415.254 72.5943C415.165 72.5595 415.109 72.5063 415.061 72.4678C406.548 68.027 395.994 67.5721 386.061 71.281C382.729 72.5411 379.636 74.1975 376.83 76.2115L369.956 33.3119H339.65L338.815 38.2443H306.917L303.274 60.2975L300.628 57.0674C292.898 47.6797 281.693 42.5089 269.28 42.2521L296.363 27.8624L277.477 0.00189209L243.357 38.8679L249.246 45.9665C243.911 48.1217 239.25 51.0932 235.389 54.6828L206.133 29.0235L195.904 48.4042L196.297 29.7792L150.557 44.2239L151.73 68.5168L159.512 66.5211L160.662 78.8326C151.771 74.8853 141.083 74.9825 131.171 79.1224C128.234 80.3881 125.495 81.9435 122.972 83.7521C124.686 76.2518 124.28 68.858 121.389 62.2638C117.975 54.4719 111.967 48.0318 104.6 43.969C99.4365 40.5683 93.2818 38.4497 86.8413 37.7288C71.0139 34.994 52.008 37.8022 33.3027 45.6803C26.4262 48.5803 20.0117 51.8709 14.2263 55.5138L6.91376 60.0976L11.3299 67.4694L25.0346 90.3664C25.0346 90.3664 29.228 97.3824 29.2558 97.3788L36.6667 93.7781L37.7002 93.3086L71.7542 168.441L75.0385 175.663L82.6423 173.242L101.067 167.407L109.143 164.87L107.012 156.744L97.2266 119.61C100.041 117.55 102.669 115.365 105.094 113.078C104.547 117.515 104.834 122.007 106.07 126.307C108.629 135.309 114.592 142.421 122.868 146.361C131.806 150.607 142.71 150.618 152.799 146.388C157.859 144.266 162.358 141.17 166.171 137.485L167.561 152.274L199.828 147.577L199.778 118.975L267.202 151.917V120.021C269.907 119.797 272.668 119.375 275.444 118.702C282.869 116.928 289.225 114.496 294.871 111.152L292.039 128.282L328.392 133.937L330.387 121.006L339.882 138.345L345.686 127.29L347.806 145.442L389.023 152.625L386.837 138.917C392.479 139.548 398.426 138.8 404.171 136.658C405.531 136.16 406.874 135.555 408.16 134.906L406.518 149.49L433.95 153.316L434.154 164.437L462.758 173.313L500 62.35L461.22 53.032ZM300.176 69.522L302.066 67.5355L299.782 81.5253L293.824 76.2206L300.176 69.522ZM276.021 12.3739L286.007 25.7842L257.456 39.7759L255.484 36.8135L276.021 12.3739ZM86.9656 115.784L98.3566 158.99L79.9203 164.811L42.0885 81.2905C40.0307 82.3599 36.2307 84.1538 32.7405 85.845L19.0413 62.9682C24.4891 59.5289 30.4638 56.4804 36.8189 53.8262C54.6539 46.3278 71.6707 44.09 85.2808 46.4672C90.0959 47.0028 95.1929 48.406 99.6573 51.3353C105.782 54.7452 110.467 59.5986 113.169 65.7801C119.758 80.832 108.751 102.493 86.9656 115.784ZM171.727 108.094C171.515 114.527 169.125 120.973 165.125 126.426C161.319 131.7 156.003 136.052 149.748 138.714C133.754 145.412 117.76 138.714 113.486 123.702C109.347 109.188 118.979 91.909 134.476 85.3094C144.373 81.1786 154.304 82.1581 161.418 86.9364C165.811 89.8822 169.162 94.3119 170.727 99.8624C170.923 100.451 171.053 101.069 171.185 101.675C171.632 103.789 171.812 105.958 171.727 108.094ZM258.752 138.64L191.852 105.563L191.97 140.22L174.664 142.553L173.458 128.268C178.802 119.21 180.756 108.537 177.967 98.749C176.436 93.3691 173.608 88.6991 169.766 84.9572L167.283 55.8311L159.512 57.8231L159.169 50.4585L186.96 42.2778L188.664 70.6133L209.137 42.1769L229.153 61.0202L201.162 90.1702L227.459 100.453C230.396 105.956 234.877 110.631 240.499 114.076C245.934 117.392 252.161 119.353 258.748 119.997L258.752 138.64ZM224.015 90.7186L214.709 87.1693L223.384 78.8345C223.013 82.6607 223.204 86.6612 224.015 90.7186ZM296.819 99.3836C290.399 104.633 283.081 108.056 273.412 110.365C271.299 110.844 269.228 111.193 267.202 111.369C251.855 112.86 238.979 105.893 234.094 94.5944C233.485 93.226 233.016 91.8412 232.661 90.3627C230.401 80.8466 232.331 72.3412 237.087 65.6774C238.456 63.733 240.082 61.9612 241.907 60.3654C246.387 56.4144 252.105 53.5419 258.607 51.9975C273.226 48.5124 286.102 52.9238 293.995 62.4986L266.137 91.8118C268.025 92.164 271.029 91.6742 273.247 91.1496C279.882 89.5502 283.595 86.0688 286.866 82.2755L297.999 92.1768L301.372 95.1887C299.91 96.6836 298.374 98.0941 296.819 99.3836ZM355.922 138.503L349.862 98.8187L341.292 120.71L328.459 93.3489H328.314L323.243 125.036L301.855 121.356L304.863 103.674C305.67 102.924 306.464 102.172 307.245 101.377L314.177 94.3211L307.44 88.3561L314.599 46.2471H336.178L341.579 75.3971L347.632 41.6156H363.068L369.473 82.7726C361.322 91.9512 357.362 104.29 360.086 115.578C362.192 124.329 367.632 131.377 375.431 135.493C376.216 135.883 377.029 136.27 377.867 136.604L378.684 141.94L355.922 138.503ZM409.222 125.573C406.863 127.233 404.267 128.644 401.477 129.662C395.968 131.736 390.488 132.167 385.607 131.208C382.204 130.544 379.101 129.232 376.402 127.334C372.108 124.263 368.946 119.729 367.553 114.036C365.927 107.196 367.425 99.8917 371.147 93.4938C373.002 90.3664 375.383 87.4279 378.199 84.8948C381.341 82.1104 384.983 79.8305 389.036 78.2897C398.467 74.8119 407.769 76.0115 414.317 80.665C416.725 82.3526 418.724 84.5005 420.299 86.9969C421.494 88.9687 422.422 91.1423 422.984 93.5158C424.99 101.73 422.602 110.527 417.36 117.614C415.115 120.635 412.378 123.35 409.222 125.573ZM457.381 162.977L441.565 158.32L440.186 100.677L432.232 145.145L414.977 142.423L416.213 129.619C427.48 120.208 433.453 105.361 430.18 91.9072C428.742 85.9495 425.643 80.7623 421.275 76.8186L422.732 61.719L416.208 60.0022L416.644 51.9406L446.371 57.8469L456.366 104.705L466.618 62.6949L489.233 67.6345L457.381 162.977Z" fill="url(#paint8_linear)"/>
<path d="M470.378 168.44V164.089H468.734V163.506H472.69V164.089H471.039V168.44H470.378Z" fill="black"/>
<path d="M473.35 168.44V163.506H474.344L475.526 167C475.635 167.325 475.714 167.569 475.764 167.73C475.821 167.551 475.909 167.287 476.03 166.939L477.225 163.506H478.113V168.44H477.476V164.311L476.026 168.44H475.43L473.987 164.24V168.44H473.35Z" fill="black"/>
</g>
<defs>
<linearGradient id="paint0_linear" x1="24.6782" y1="98.1766" x2="6.42134" y2="63.7582" gradientUnits="userSpaceOnUse">
<stop stop-color="#0070B6"/>
<stop offset="1" stop-color="#1D2C5E"/>
</linearGradient>
<linearGradient id="paint1_linear" x1="251.376" y1="28.224" x2="274.678" y2="2.96641" gradientUnits="userSpaceOnUse">
<stop stop-color="#0070B6"/>
<stop offset="1" stop-color="#1D2C5E"/>
</linearGradient>
<linearGradient id="paint2_linear" x1="148.444" y1="69.8853" x2="145.694" y2="46.5125" gradientUnits="userSpaceOnUse">
<stop stop-color="#0070B6"/>
<stop offset="1" stop-color="#1D2C5E"/>
</linearGradient>
<linearGradient id="paint3_linear" x1="406.163" y1="65.3875" x2="405.065" y2="44.296" gradientUnits="userSpaceOnUse">
<stop stop-color="#125D9E"/>
<stop offset="1" stop-color="#1D2C5E"/>
</linearGradient>
<linearGradient id="paint4_linear" x1="327.422" y1="34.9878" x2="303.07" y2="74.1781" gradientUnits="userSpaceOnUse">
<stop stop-color="#125D9E"/>
<stop offset="1" stop-color="#1D2C5E"/>
</linearGradient>
<linearGradient id="paint5_linear" x1="108.306" y1="97.4422" x2="124.881" y2="130.417" gradientUnits="userSpaceOnUse">
<stop stop-color="#105FA1"/>
<stop offset="1" stop-color="#1D2C5E"/>
</linearGradient>
<linearGradient id="paint6_linear" x1="44.6083" y1="86.2395" x2="63.7694" y2="131.173" gradientUnits="userSpaceOnUse">
<stop stop-color="#105FA1"/>
<stop offset="1" stop-color="#1D2C5E"/>
</linearGradient>
<linearGradient id="paint7_linear" x1="130.358" y1="102.871" x2="159.914" y2="102.871" gradientUnits="userSpaceOnUse">
<stop stop-color="#3C5AA6"/>
<stop offset="0.9331" stop-color="#2B73B9"/>
<stop offset="1" stop-color="#2A75BB"/>
</linearGradient>
<linearGradient id="paint8_linear" x1="6.915" y1="87.8321" x2="500.002" y2="87.8321" gradientUnits="userSpaceOnUse">
<stop stop-color="#3C5AA6"/>
<stop offset="0.9331" stop-color="#2B73B9"/>
<stop offset="1" stop-color="#2A75BB"/>
</linearGradient>
<clipPath id="clip0">
<rect width="500" height="181.25" fill="white"/>
</clipPath>
</defs>
</svg>
